<?xml version="1.0" encoding="utf-8"?>
<!-- Generator: Adobe Illustrator 26.2.1, SVG Export Plug-In . SVG Version: 6.00 Build 0)  -->
<svg version="1.1" xmlns="http://www.w3.org/2000/svg" xmlns:xlink="http://www.w3.org/1999/xlink" x="0px" y="0px"
	 viewBox="0 0 500 129.2" style="enable-background:new 0 0 500 129.2;" xml:space="preserve">
<style type="text/css">
	.st0{fill:#00042D;}
	.st1{fill:url(#SVGID_1_);}
	.st2{fill:url(#SVGID_00000113325674004619046410000017197043080714448565_);}
	.st3{fill:url(#SVGID_00000180350720016781371640000016221121423954134689_);}
	.st4{fill:#FFFFFF;}
	.st5{fill:url(#SVGID_00000064327990355083011450000015143346963694617492_);}
	.st6{fill:url(#SVGID_00000100368987333664438850000013209608096343549327_);}
	.st7{fill:url(#SVGID_00000037659490803897084880000001933889843711066814_);}
	.st8{fill:url(#SVGID_00000112608632772099554590000005812047124091877519_);}
	.st9{fill:url(#SVGID_00000066512320763094834150000015340698430102995589_);}
	.st10{fill:url(#SVGID_00000167361848671840518390000003126431399492644776_);}
</style>
<g id="BACKGROUND">
</g>
<g id="OBJECTS">
	<g>
		<path class="st0" d="M198.9,57.7v28.8h-6.7l-12.7-15.4v15.4h-8V57.7h6.7l12.7,15.4V57.7H198.9z"/>
		<path class="st0" d="M203,72.2c0-8.7,6.8-15,16-15s16,6.3,16,15c0,8.7-6.8,15-16,15S203,80.8,203,72.2z M226.8,72.2
			c0-5-3.4-8.2-7.8-8.2c-4.4,0-7.8,3.3-7.8,8.2c0,5,3.4,8.2,7.8,8.2C223.4,80.4,226.8,77.2,226.8,72.2z"/>
		<path class="st0" d="M244.9,64.2H236v-6.5h25.8v6.5H253v22.4h-8.2V64.2z"/>
		<path class="st0" d="M287.8,80.3v6.3h-23.2V57.7h22.6v6.3h-14.5v4.9h12.8V75h-12.8v5.3H287.8z"/>
		<path class="st0" d="M331.4,57.7v28.8h-8.2V75.3h-11.1v11.2H304V57.7h8.2v10.8h11.1V57.7H331.4z"/>
		<path class="st0" d="M356.3,81h-12.2l-2.3,5.6h-8.3l12.7-28.8h8L367,86.6h-8.5L356.3,81z M353.9,75l-3.7-9.2l-3.7,9.2H353.9z"/>
		<path class="st0" d="M367.3,72.2c0-8.8,6.7-15,15.9-15c5.3,0,9.6,1.9,12.4,5.4l-5.2,4.7c-1.8-2.2-4-3.4-6.8-3.4
			c-4.7,0-8,3.3-8,8.2c0,4.9,3.3,8.2,8,8.2c2.8,0,5-1.2,6.8-3.4l5.2,4.7c-2.8,3.5-7.1,5.4-12.4,5.4C374,87.2,367.3,80.9,367.3,72.2z
			"/>
		<path class="st0" d="M410.1,76.1l-3,3.3v7.2h-8.1V57.7h8.1v12l11.2-12h9l-11.8,12.8l12.4,16.1h-9.5L410.1,76.1z"/>
		<path class="st0" d="M452.9,80.3v6.3h-23.2V57.7h22.6v6.3h-14.5v4.9h12.8V75h-12.8v5.3H452.9z"/>
		<path class="st0" d="M469.8,78.9h-4.5v7.7h-8.2V57.7h13.2c7.9,0,12.8,4.1,12.8,10.7c0,4.2-2.1,7.4-5.6,9.1l6.2,9.1H475L469.8,78.9
			z M469.9,64.2h-4.5v8.4h4.5c3.4,0,5.1-1.6,5.1-4.2C475,65.7,473.3,64.2,469.9,64.2z"/>
	</g>
	<g>
		<path class="st0" d="M102.4,111.8H34.3L15.6,68.7c-0.9-2,0.7-4.2,2.9-4.2h83.8V111.8z"/>
		<path class="st0" d="M94.1,112l1.6,0.1c0.2,0,19.4,1.6,29.7,2.5c1.1,0.1,2.1,0.2,2.9,0.3c1.7,0.2,3.5,0.2,5.1,0.2
			c4.2,0,8.1-0.5,11.3-1.5c5.6-1,9.3-4.6,9.9-9.7c0-0.2,0-0.3,0-0.5l0,0l0-0.1c0.2-3.8-0.8-10.3-11-27.1
			c-4.6-7.6-8.7-13.7-12.2-18.2l0,0l0-0.1c-2.9-3.6-5.2-6-6.8-6.9l0,0l0,0c-0.5-0.3-1-0.5-1.6-0.8c-0.3-0.1-0.6-0.3-0.9-0.4
			c-0.3-0.1-0.6-0.2-1-0.4c-1.3-0.5-2.8-0.9-4.1-1.3c-0.5-6.2-2-13.5-2.5-15.8c-1.6-6.6-4.2-17.6-16.6-17.6h0h0l-0.3,0
			c-9.4,0.1-19.1,4.3-26.1,11.1c-2.9,2.8-4.6,6.7-5.7,9.3c-0.4,1-0.9,2.1-1.3,3.1c-0.2,0.5-0.3,0.8-0.3,0.8l0,0.1l0,0.1
			c-1.3,4.3,0.3,12.2,2.5,17c0.6,1.4,1.5,3.1,2.7,4.9c-1,0.9-2,1.9-2.9,3c-4.6,5.3-21.1,30.4-22,34.1c-1.2,4.7,3.3,7.3,4.8,8.1
			c1.3,0.8,2.9,0.1,5.2,1.1c3.8,1.7,5.8,1.2,5.9,1.2l5.9-1.2l2.1,0c0,0-4.9,2.4-3.2,1 M69.4,40.9c0,0,0.1-0.2,0.2-0.6
			c0.2-0.6,0.6-1.6,1.1-2.8c1-2.3,2.4-5.5,4.5-7.6c5.6-5.5,14-9.4,22.3-9.5c0.1,0,0.1,0,0.2,0c7.8,0,9.5,6.6,11,13.3
			c0.7,2.8,2.3,11.1,2.5,17c0,1.2,0.9,2.3,2.2,2.5l0,0c0.4,0.1,0.7,0.1,1.1,0.2c1.6,0.4,3.2,0.8,4.5,1.3c0.3,0.1,0.6,0.2,0.8,0.3
			c0.3,0.1,0.5,0.2,0.7,0.3c0.5,0.2,0.9,0.4,1.2,0.6c0,0,1.5,0.8,5.2,5.5c0,0,0,0,0,0.1c0.7,0.9,1.5,1.9,2.3,3H105
			c-3.1-1.3-6.2-4.3-8.7-11.2c-1.4-4-4.7-12.3-10-15.4c-1.7-1-3.8-1.3-5.7-1.3c-0.5,0-1,0-1.4,0.1c-2.7,0.2-4.9,0.9-5.3,1.1
			c-1.9,0.7-3.2,1.7-3.9,2.4c0.4-0.1,0.7-0.1,1.1-0.1c2.4,0,4.5,1.8,4.9,4.3c0.4,2.9,1.1,5.6,1.8,7.1c1.5,3.4,1.4,6.1,3.9,8.4
			c3.1,2.8,5.3,4.2,7,4.7H73.9c1-0.8,2-1.6,3-2.3c-2.8-3.1-4.6-6.7-5.4-8.3C69.7,49.9,68.7,43.4,69.4,40.9z M90.3,59.2
			c0,0-1.3-0.2-4.9-3.5c-0.4-0.4-0.6-0.9-1.1-2.5c-0.3-1.1-0.7-2.5-1.4-4c-0.4-0.9-0.9-2.9-1.3-5.6c-0.1-0.4-0.1-0.8-0.3-1.2
			c0.9,0.1,1.7,0.2,2.2,0.5c1.4,0.8,4.3,3.6,7.5,12.4c0.4,1.1,0.8,2.2,1.3,3.2l-1.7,0.6C90.4,59.2,90.4,59.2,90.3,59.2z M92.5,64.5
			c0,0,0,0,0,0.1h-0.3C92.2,64.5,92.4,64.5,92.5,64.5z M64.2,107.3c0,0-15-5.9-14.6-7.5c0.4-1.6,15.3-25.5,20.8-31.8
			c1.2-1.3,2.3-2.5,3.5-3.5v34.9C68.7,103.7,64.2,107.3,64.2,107.3z M76.2,108.9c0,0-0.1-1.4-0.2-3.6h7.3c0.2,0.3,0.4,0.7,0.5,0.9
			c0.5,0.9,1,1.8,1.6,2.6H76.2z M149,102.9c0,0.1,0,0.2,0,0.3c-0.3,2.9-2.8,4.4-5.6,4.8c-2.6,0.9-6,1.4-9.9,1.4
			c-1.5,0-3-0.1-4.6-0.2c-0.9-0.1-1.9-0.2-3-0.3c-10.4-0.9-29.7-2.5-29.7-2.5s-0.6-0.4-1.4-1.1h35.9v-9.5c2.8,0.6,5.3,1.4,7,2.5
			c-1.4-2.9-6-5.8-7-6.4V66.4c2.2,3.2,5,7.3,8.3,12.7C146.7,92.1,149.3,99.1,149,102.9z"/>
		<linearGradient id="SVGID_1_" gradientUnits="userSpaceOnUse" x1="98.9284" y1="103.4161" x2="114.4447" y2="29.181">
			<stop  offset="0" style="stop-color:#FF00C1"/>
			<stop  offset="0.1601" style="stop-color:#FE15AD"/>
			<stop  offset="0.4927" style="stop-color:#FA4D7B"/>
			<stop  offset="0.9659" style="stop-color:#F4A52A"/>
			<stop  offset="1" style="stop-color:#F4AC24"/>
		</linearGradient>
		<path class="st1" d="M149,102.9c0,0.1,0,0.2,0,0.3c-0.3,2.9-2.8,4.4-5.6,4.8c-3.6,1.2-8.7,1.7-14.5,1.2c-0.9-0.1-1.9-0.2-3-0.3
			c-10.4-0.9-29.7-2.5-29.7-2.5s-9.9-6.2-10.4-7.7c0,0,1.4-0.3,4.1-0.8c1.8-0.3,4.3-0.8,7.2-1.2c4.3-0.7,9.7-1.5,16-2.4
			c2.8-0.4,18.6,0.4,24.5,4c-1.4-2.9-6-5.8-7-6.4c-1.8-1.2-4.2-2.1-6.6-2.8c-1.9-0.6-3.6-1.8-4.6-3.5c-2.2-3.4-4-6.9-4.5-9.4
			c-0.3-1.8,0.4-6.1,0.9-8.8c0-0.2,0-0.4,0-0.5c-0.1-1-1-1.8-2.1-1.8c-4,0.2-12.2,2.7-17.4-11.8c-1.4-4-4.7-12.3-10-15.4
			c-2.2-1.3-4.8-1.5-7.1-1.3c-2.7,0.2-4.9,0.9-5.3,1.1c-1.9,0.7-3.2,1.7-3.9,2.4c0.4-0.1,0.7-0.1,1.1-0.1c2.4,0,4.5,1.8,4.9,4.3
			c0.4,2.9,1.1,5.6,1.8,7.1c1.5,3.4,1.4,6.1,3.9,8.4c5.9,5.5,8.6,5.4,10.9,4.6c0,0-0.4,1.8-3.1,2.5c-0.9,0.2-1.8,0.3-2.6,0.3
			c-0.4,0-1.9,0.1-3.6,0.2c-3.4,0.2-6.1,3-6.3,6.4c-0.3,6.5-0.5,16.4,0.4,19.4c0.1,0.4,4.7,9.8,6.5,12.9c0.5,0.9,1,1.8,1.6,2.6h-9.2
			c0,0-0.3-4.9-0.6-10.9c-6,4.9-11.5,9.3-11.5,9.3s-15-5.9-14.6-7.5c0.4-1.6,15.3-25.5,20.8-31.8c2.2-2.5,4.3-4.3,6.5-5.7
			c-2.8-3.1-4.6-6.7-5.4-8.3c-1.9-4.1-2.9-10.5-2.2-13c0,0,0.1-0.2,0.2-0.6c0.2-0.6,0.6-1.6,1.1-2.8c1-2.3,2.4-5.5,4.5-7.6
			c5.6-5.5,14-9.4,22.3-9.5c8-0.1,9.7,6.5,11.3,13.3c0.7,2.8,2.3,11.1,2.5,17c0,1.2,0.9,2.3,2.2,2.5l0,0c0.4,0.1,0.7,0.1,1.1,0.2
			c1.6,0.4,3.2,0.8,4.5,1.3c0.3,0.1,0.6,0.2,0.8,0.3c0.3,0.1,0.5,0.2,0.7,0.3c0.5,0.2,0.9,0.4,1.2,0.6c0,0,1.5,0.8,5.2,5.5
			c0,0,0,0,0,0.1c2.7,3.4,6.6,8.9,11.9,17.6C146.7,92.1,149.3,99.1,149,102.9z"/>
		
			<linearGradient id="SVGID_00000018951905323123042350000006880422915169760424_" gradientUnits="userSpaceOnUse" x1="123.1367" y1="93.7358" x2="121.9057" y2="65.1746">
			<stop  offset="0" style="stop-color:#F4D63B;stop-opacity:0"/>
			<stop  offset="0.3469" style="stop-color:#B78B6B;stop-opacity:0.3469"/>
			<stop  offset="0.6551" style="stop-color:#864F91;stop-opacity:0.6551"/>
			<stop  offset="0.8807" style="stop-color:#672AA9;stop-opacity:0.8807"/>
			<stop  offset="1" style="stop-color:#5C1CB2"/>
		</linearGradient>
		<path style="fill:url(#SVGID_00000018951905323123042350000006880422915169760424_);" d="M130.6,91.9c-1.8-1.2-4.2-2.1-6.6-2.8
			c-1.9-0.6-3.6-1.8-4.6-3.5c-2.2-3.4-4-6.9-4.5-9.4c-0.3-1.8,0.4-6.1,0.9-8.8c0-0.2,0-0.4,0-0.5c0.7,2.2,0.7,5.5,1.4,7.6
			C121.2,86.7,129.9,91,130.6,91.9z"/>
		
			<linearGradient id="SVGID_00000000944110257275674510000003009168949154454680_" gradientUnits="userSpaceOnUse" x1="128.4482" y1="72.9617" x2="110.2804" y2="128.9187">
			<stop  offset="0" style="stop-color:#F4D63B;stop-opacity:0"/>
			<stop  offset="0.3469" style="stop-color:#B78B6B;stop-opacity:0.3469"/>
			<stop  offset="0.6551" style="stop-color:#864F91;stop-opacity:0.6551"/>
			<stop  offset="0.8807" style="stop-color:#672AA9;stop-opacity:0.8807"/>
			<stop  offset="1" style="stop-color:#5C1CB2"/>
		</linearGradient>
		<path style="fill:url(#SVGID_00000000944110257275674510000003009168949154454680_);" d="M149,102.9c0,0.1,0,0.2,0,0.3
			c-0.3,2.9-2.8,4.4-5.6,4.8c-3.6,1.2-8.7,1.7-14.5,1.2c-0.9-0.1-1.9-0.2-3-0.3c-10.4-0.9-29.7-2.5-29.7-2.5s-3.9-5.2-6.3-8.5
			c1.8-0.3,4.3-0.8,7.2-1.2c2.3,3.2,5.6,5.5,12.6,6.4c10.2,1.4,17.8,2.9,26.8,1.9c4.8-0.5,8.3-2.7,8-5.7
			c-1.2-10.5-11.9-30.2-17.5-37.9c2.7,3.4,6.6,8.9,11.9,17.6C146.7,92.1,149.3,99.1,149,102.9z"/>
		<g>
			<path class="st4" d="M67.5,109.2h47.2c0.8,0,1.5-0.7,1.5-1.5l0,0c0-0.8-0.7-1.5-1.5-1.5H67.5c-0.8,0-1.5,0.7-1.5,1.5v0
				C66,108.5,66.7,109.2,67.5,109.2z"/>
			<path class="st4" d="M77.3,109.2h49.2c0.6,0,1-0.5,1-1v0c0-1.1-0.9-1.9-1.9-1.9H77.3c0,0,0,0,0,0L77.3,109.2
				C77.3,109.2,77.3,109.2,77.3,109.2z"/>
			<path class="st4" d="M77.3,109.2h49.2c0.6,0,1-0.5,1-1v0c0-1.1-0.9-1.9-1.9-1.9H77.3c0,0,0,0,0,0L77.3,109.2
				C77.3,109.2,77.3,109.2,77.3,109.2z"/>
			
				<linearGradient id="SVGID_00000065768858370088300760000011404596540572062345_" gradientUnits="userSpaceOnUse" x1="54.7809" y1="67.4945" x2="66.0138" y2="111.5277">
				<stop  offset="0" style="stop-color:#A76DFC"/>
				<stop  offset="0.2254" style="stop-color:#9B60F0"/>
				<stop  offset="0.6394" style="stop-color:#7C3ED1"/>
				<stop  offset="1" style="stop-color:#5C1CB2"/>
			</linearGradient>
			<path style="fill:url(#SVGID_00000065768858370088300760000011404596540572062345_);" d="M40.2,109.2h56.5c1.2,0,1.9-1.2,1.5-2.2
				L81.5,68.5c-0.3-0.6-0.8-1-1.5-1H23.5c-1.2,0-1.9,1.2-1.5,2.2l16.7,38.5C39,108.8,39.6,109.2,40.2,109.2z"/>
			<path class="st4" d="M40.2,109.2h56.5c1.2,0,1.9-1.2,1.5-2.2L81.5,68.5c-0.3-0.6-0.8-1-1.5-1H23.5c-1.2,0-1.9,1.2-1.5,2.2
				l16.7,38.5C39,108.8,39.6,109.2,40.2,109.2z"/>
			
				<linearGradient id="SVGID_00000070077078023607010090000015394671011935026858_" gradientUnits="userSpaceOnUse" x1="52.0216" y1="67.4945" x2="63.2545" y2="111.5277">
				<stop  offset="0" style="stop-color:#A76DFC"/>
				<stop  offset="0.2254" style="stop-color:#9B60F0"/>
				<stop  offset="0.6394" style="stop-color:#7C3ED1"/>
				<stop  offset="1" style="stop-color:#5C1CB2"/>
			</linearGradient>
			<path style="fill:url(#SVGID_00000070077078023607010090000015394671011935026858_);" d="M37.5,109.2h56.5c1.2,0,1.9-1.2,1.5-2.2
				L78.7,68.5c-0.3-0.6-0.8-1-1.5-1H20.8c-1.2,0-1.9,1.2-1.5,2.2L36,108.2C36.2,108.8,36.8,109.2,37.5,109.2z"/>
		</g>
		
			<linearGradient id="SVGID_00000093152652200769348690000013225799835821054098_" gradientUnits="userSpaceOnUse" x1="73.8994" y1="68.9483" x2="85.718" y2="42.3009">
			<stop  offset="0" style="stop-color:#F4D63B;stop-opacity:0"/>
			<stop  offset="0.3469" style="stop-color:#B78B6B;stop-opacity:0.3469"/>
			<stop  offset="0.6551" style="stop-color:#864F91;stop-opacity:0.6551"/>
			<stop  offset="0.8807" style="stop-color:#672AA9;stop-opacity:0.8807"/>
			<stop  offset="1" style="stop-color:#5C1CB2"/>
		</linearGradient>
		<path style="fill:url(#SVGID_00000093152652200769348690000013225799835821054098_);" d="M92.5,64.5c0,0-1.4,2.6-4.6,1.9
			c-6.6-1.3-10.8-6.1-13-12c-1.4-3.7-1.9-7-2.3-9.5C71.9,42,70,40.3,70,40.3c0.4-0.1,0.7-0.1,1.1-0.1c2.4,0,4.5,1.8,4.9,4.3
			c0.4,2.9,1.1,5.6,1.8,7.1c1.5,3.4,1.4,6.1,3.9,8.4C87.6,65.4,90.2,65.3,92.5,64.5z"/>
		
			<linearGradient id="SVGID_00000117652954082013067790000012805649349064481701_" gradientUnits="userSpaceOnUse" x1="91.4163" y1="28.2913" x2="101.4158" y2="72.7151">
			<stop  offset="0" style="stop-color:#F4D63B;stop-opacity:0"/>
			<stop  offset="0.3469" style="stop-color:#B78B6B;stop-opacity:0.3469"/>
			<stop  offset="0.6551" style="stop-color:#864F91;stop-opacity:0.6551"/>
			<stop  offset="0.8807" style="stop-color:#672AA9;stop-opacity:0.8807"/>
			<stop  offset="1" style="stop-color:#5C1CB2"/>
		</linearGradient>
		<path style="fill:url(#SVGID_00000117652954082013067790000012805649349064481701_);" d="M113.7,65.1c-4,0.2-12.2,2.7-17.4-11.8
			c-1.4-4-4.7-12.3-10-15.4c-2.2-1.3-4.8-1.5-7.1-1.3c14.4-2.8,17.3,7.9,23.1,17.9C107.1,62.9,112,63.8,113.7,65.1z"/>
		
			<linearGradient id="SVGID_00000017485542257541432350000010875266832599033221_" gradientUnits="userSpaceOnUse" x1="106.0176" y1="65.2592" x2="104.7643" y2="85.1875">
			<stop  offset="0" style="stop-color:#F4AC24"/>
			<stop  offset="3.412157e-02" style="stop-color:#F4A52A"/>
			<stop  offset="0.5073" style="stop-color:#FA4D7B"/>
			<stop  offset="0.8399" style="stop-color:#FE15AD"/>
			<stop  offset="1" style="stop-color:#FF00C1"/>
		</linearGradient>
		<path style="fill:url(#SVGID_00000017485542257541432350000010875266832599033221_);" d="M105.8,76.8c-0.2-3-0.3-6.1-0.3-8
			c0-0.3-0.2-0.5-0.5-0.5c-0.3,0-0.5,0.2-0.5,0.5c0,1.9,0.1,5,0.3,8.1c0.1,2.7,0.3,5.4,0.3,7.2c0,0.3,0.2,0.5,0.5,0.5
			c0.3,0,0.5-0.2,0.5-0.5C106.1,82.2,105.9,79.6,105.8,76.8z"/>
		
			<linearGradient id="SVGID_00000083055269872235108270000015222608180869922443_" gradientUnits="userSpaceOnUse" x1="93.6868" y1="64.4836" x2="92.4334" y2="84.4119">
			<stop  offset="0" style="stop-color:#F4AC24"/>
			<stop  offset="3.412157e-02" style="stop-color:#F4A52A"/>
			<stop  offset="0.5073" style="stop-color:#FA4D7B"/>
			<stop  offset="0.8399" style="stop-color:#FE15AD"/>
			<stop  offset="1" style="stop-color:#FF00C1"/>
		</linearGradient>
		<path style="fill:url(#SVGID_00000083055269872235108270000015222608180869922443_);" d="M93.2,69.7c0-0.3-0.2-0.5-0.5-0.5
			c-0.3,0-0.5,0.2-0.5,0.5c-0.1,3.1,0.1,6.5,0.3,9.9c0.1,1.5,0.1,2.9,0.2,4.3c0,0.3,0.2,0.5,0.5,0.5c0,0,0,0,0,0
			c0.3,0,0.5-0.2,0.5-0.5c0-1.4-0.1-2.8-0.2-4.3C93.3,76.2,93.1,72.7,93.2,69.7z"/>
	</g>
</g>
</svg>
